<svg width="221" height="291" viewBox="0 0 221 291" fill="none" xmlns="http://www.w3.org/2000/svg">
<path d="M33.9 258.15V279H30.48V269.88H20.67V279H17.25V258.15H20.67V267.09H30.48V258.15H33.9ZM55.4723 274.74H46.7423L45.2423 279H41.6723L49.1423 258.12H53.1023L60.5723 279H56.9723L55.4723 274.74ZM54.5123 271.95L51.1223 262.26L47.7023 271.95H54.5123ZM71.7403 276.24H78.7903V279H68.3203V258.15H71.7403V276.24ZM89.5704 276.24H96.6204V279H86.1504V258.15H89.5704V276.24ZM107.4 258.15V279H103.98V258.15H107.4ZM123.261 279.21C121.861 279.21 120.601 278.97 119.481 278.49C118.361 277.99 117.481 277.29 116.841 276.39C116.201 275.49 115.881 274.44 115.881 273.24H119.541C119.621 274.14 119.971 274.88 120.591 275.46C121.231 276.04 122.121 276.33 123.261 276.33C124.441 276.33 125.361 276.05 126.021 275.49C126.681 274.91 127.011 274.17 127.011 273.27C127.011 272.57 126.801 272 126.381 271.56C125.981 271.12 125.471 270.78 124.851 270.54C124.251 270.3 123.411 270.04 122.331 269.76C120.971 269.4 119.861 269.04 119.001 268.68C118.161 268.3 117.441 267.72 116.841 266.94C116.241 266.16 115.941 265.12 115.941 263.82C115.941 262.62 116.241 261.57 116.841 260.67C117.441 259.77 118.281 259.08 119.361 258.6C120.441 258.12 121.691 257.88 123.111 257.88C125.131 257.88 126.781 258.39 128.061 259.41C129.361 260.41 130.081 261.79 130.221 263.55H126.441C126.381 262.79 126.021 262.14 125.361 261.6C124.701 261.06 123.831 260.79 122.751 260.79C121.771 260.79 120.971 261.04 120.351 261.54C119.731 262.04 119.421 262.76 119.421 263.7C119.421 264.34 119.611 264.87 119.991 265.29C120.391 265.69 120.891 266.01 121.491 266.25C122.091 266.49 122.911 266.75 123.951 267.03C125.331 267.41 126.451 267.79 127.311 268.17C128.191 268.55 128.931 269.14 129.531 269.94C130.151 270.72 130.461 271.77 130.461 273.09C130.461 274.15 130.171 275.15 129.591 276.09C129.031 277.03 128.201 277.79 127.101 278.37C126.021 278.93 124.741 279.21 123.261 279.21ZM152.466 258.15V260.94H146.916V279H143.496V260.94H137.916V258.15H152.466ZM163.85 258.15V279H160.43V258.15H163.85ZM171.7 268.53C171.7 266.49 172.17 264.66 173.11 263.04C174.07 261.42 175.36 260.16 176.98 259.26C178.62 258.34 180.41 257.88 182.35 257.88C184.57 257.88 186.54 258.43 188.26 259.53C190 260.61 191.26 262.15 192.04 264.15H187.93C187.39 263.05 186.64 262.23 185.68 261.69C184.72 261.15 183.61 260.88 182.35 260.88C180.97 260.88 179.74 261.19 178.66 261.81C177.58 262.43 176.73 263.32 176.11 264.48C175.51 265.64 175.21 266.99 175.21 268.53C175.21 270.07 175.51 271.42 176.11 272.58C176.73 273.74 177.58 274.64 178.66 275.28C179.74 275.9 180.97 276.21 182.35 276.21C183.61 276.21 184.72 275.94 185.68 275.4C186.64 274.86 187.39 274.04 187.93 272.94H192.04C191.26 274.94 190 276.48 188.26 277.56C186.54 278.64 184.57 279.18 182.35 279.18C180.39 279.18 178.6 278.73 176.98 277.83C175.36 276.91 174.07 275.64 173.11 274.02C172.17 272.4 171.7 270.57 171.7 268.53ZM201.923 279.21C201.303 279.21 200.783 279 200.363 278.58C199.943 278.16 199.733 277.64 199.733 277.02C199.733 276.4 199.943 275.88 200.363 275.46C200.783 275.04 201.303 274.83 201.923 274.83C202.523 274.83 203.033 275.04 203.453 275.46C203.873 275.88 204.083 276.4 204.083 277.02C204.083 277.64 203.873 278.16 203.453 278.58C203.033 279 202.523 279.21 201.923 279.21Z" fill="#FEE074"/>
<path d="M140.485 136.557L221 0H167.047L86.3249 136.507C86.2238 136.627 86.1686 136.778 86.1686 136.934C86.1686 137.089 86.2238 137.24 86.3249 137.36L137.632 224.648C137.84 225 138.047 225 138.462 225H191.948L140.434 137.26C140.391 137.146 140.374 137.024 140.383 136.903C140.392 136.782 140.427 136.664 140.485 136.557ZM92.8096 92.5112L62.2535 40.6808C62.1519 40.5066 61.9989 40.3657 61.814 40.2762C61.6292 40.1867 61.4209 40.1527 61.216 40.1786H11.4131L41.9692 92.6116C42.037 92.7348 42.0555 92.8778 42.0211 93.0134L0 160.714H50.2178C50.388 160.735 50.5606 160.702 50.71 160.621C50.8595 160.54 50.978 160.414 51.0479 160.262L92.8096 93.1138C92.8614 92.9161 92.8614 92.7089 92.8096 92.5112Z" fill="#FEE074"/>
</svg>
