<svg width="250" height="48" viewBox="0 0 250 48" fill="none" xmlns="http://www.w3.org/2000/svg">
<path d="M31.1484 29.1321L49 0H37.0376L19.1399 29.1214C19.1175 29.1472 19.1053 29.1793 19.1053 29.2125C19.1053 29.2457 19.1175 29.2778 19.1399 29.3036L30.5157 47.925C30.5617 48 30.6077 48 30.6998 48H42.5587L31.1369 29.2821C31.1275 29.2578 31.1237 29.2318 31.1256 29.206C31.1276 29.1802 31.1354 29.155 31.1484 29.1321ZM20.5777 19.7357L13.8028 8.67857C13.7803 8.6414 13.7464 8.61134 13.7054 8.59226C13.6644 8.57317 13.6182 8.56591 13.5728 8.57143H2.53052L9.3054 19.7571C9.32042 19.7834 9.32451 19.8139 9.3169 19.8429L0 34.2857H11.1343C11.172 34.2902 11.2103 34.2832 11.2434 34.2658C11.2765 34.2485 11.3028 34.2216 11.3183 34.1893L20.5777 19.8643C20.5892 19.8221 20.5892 19.7779 20.5777 19.7357Z" fill="#FEE074"/>
<path d="M78.9 13.65V34.5H75.48V25.38H65.67V34.5H62.25V13.65H65.67V22.59H75.48V13.65H78.9ZM100.472 30.24H91.7423L90.2423 34.5H86.6723L94.1423 13.62H98.1023L105.572 34.5H101.972L100.472 30.24ZM99.5123 27.45L96.1223 17.76L92.7023 27.45H99.5123ZM116.74 31.74H123.79V34.5H113.32V13.65H116.74V31.74ZM134.57 31.74H141.62V34.5H131.15V13.65H134.57V31.74ZM152.4 13.65V34.5H148.98V13.65H152.4ZM168.261 34.71C166.861 34.71 165.601 34.47 164.481 33.99C163.361 33.49 162.481 32.79 161.841 31.89C161.201 30.99 160.881 29.94 160.881 28.74H164.541C164.621 29.64 164.971 30.38 165.591 30.96C166.231 31.54 167.121 31.83 168.261 31.83C169.441 31.83 170.361 31.55 171.021 30.99C171.681 30.41 172.011 29.67 172.011 28.77C172.011 28.07 171.801 27.5 171.381 27.06C170.981 26.62 170.471 26.28 169.851 26.04C169.251 25.8 168.411 25.54 167.331 25.26C165.971 24.9 164.861 24.54 164.001 24.18C163.161 23.8 162.441 23.22 161.841 22.44C161.241 21.66 160.941 20.62 160.941 19.32C160.941 18.12 161.241 17.07 161.841 16.17C162.441 15.27 163.281 14.58 164.361 14.1C165.441 13.62 166.691 13.38 168.111 13.38C170.131 13.38 171.781 13.89 173.061 14.91C174.361 15.91 175.081 17.29 175.221 19.05H171.441C171.381 18.29 171.021 17.64 170.361 17.1C169.701 16.56 168.831 16.29 167.751 16.29C166.771 16.29 165.971 16.54 165.351 17.04C164.731 17.54 164.421 18.26 164.421 19.2C164.421 19.84 164.611 20.37 164.991 20.79C165.391 21.19 165.891 21.51 166.491 21.75C167.091 21.99 167.911 22.25 168.951 22.53C170.331 22.91 171.451 23.29 172.311 23.67C173.191 24.05 173.931 24.64 174.531 25.44C175.151 26.22 175.461 27.27 175.461 28.59C175.461 29.65 175.171 30.65 174.591 31.59C174.031 32.53 173.201 33.29 172.101 33.87C171.021 34.43 169.741 34.71 168.261 34.71ZM197.466 13.65V16.44H191.916V34.5H188.496V16.44H182.916V13.65H197.466ZM208.85 13.65V34.5H205.43V13.65H208.85ZM216.7 24.03C216.7 21.99 217.17 20.16 218.11 18.54C219.07 16.92 220.36 15.66 221.98 14.76C223.62 13.84 225.41 13.38 227.35 13.38C229.57 13.38 231.54 13.93 233.26 15.03C235 16.11 236.26 17.65 237.04 19.65H232.93C232.39 18.55 231.64 17.73 230.68 17.19C229.72 16.65 228.61 16.38 227.35 16.38C225.97 16.38 224.74 16.69 223.66 17.31C222.58 17.93 221.73 18.82 221.11 19.98C220.51 21.14 220.21 22.49 220.21 24.03C220.21 25.57 220.51 26.92 221.11 28.08C221.73 29.24 222.58 30.14 223.66 30.78C224.74 31.4 225.97 31.71 227.35 31.71C228.61 31.71 229.72 31.44 230.68 30.9C231.64 30.36 232.39 29.54 232.93 28.44H237.04C236.26 30.44 235 31.98 233.26 33.06C231.54 34.14 229.57 34.68 227.35 34.68C225.39 34.68 223.6 34.23 221.98 33.33C220.36 32.41 219.07 31.14 218.11 29.52C217.17 27.9 216.7 26.07 216.7 24.03ZM246.923 34.71C246.303 34.71 245.783 34.5 245.363 34.08C244.943 33.66 244.733 33.14 244.733 32.52C244.733 31.9 244.943 31.38 245.363 30.96C245.783 30.54 246.303 30.33 246.923 30.33C247.523 30.33 248.033 30.54 248.453 30.96C248.873 31.38 249.083 31.9 249.083 32.52C249.083 33.14 248.873 33.66 248.453 34.08C248.033 34.5 247.523 34.71 246.923 34.71Z" fill="white"/>
</svg>
