<svg width="40" height="29" viewBox="0 0 40 29" fill="none" xmlns="http://www.w3.org/2000/svg">
<path d="M8.4375 11.3125C13.0957 11.3125 16.875 15.0918 16.875 19.75C16.875 24.4961 13.0957 28.1875 8.4375 28.1875C3.69141 28.1875 0 24.4961 0 19.75V11.3125C0 5.16016 5.00977 0.0625 11.25 0.0625C12.7441 0.0625 14.0625 1.38086 14.0625 2.875C14.0625 4.45703 12.7441 5.6875 11.25 5.6875C8.08594 5.6875 5.625 8.23633 5.625 11.3125V11.8398C6.50391 11.5762 7.38281 11.3125 8.4375 11.3125ZM30.9375 11.3125C35.5957 11.3125 39.375 15.0918 39.375 19.75C39.375 24.4961 35.5957 28.1875 30.9375 28.1875C26.1914 28.1875 22.5 24.4961 22.5 19.75V11.3125C22.5 5.16016 27.5098 0.0625 33.75 0.0625C35.2441 0.0625 36.5625 1.38086 36.5625 2.875C36.5625 4.45703 35.2441 5.6875 33.75 5.6875C30.5859 5.6875 28.125 8.23633 28.125 11.3125V11.8398C29.0039 11.5762 29.8828 11.3125 30.9375 11.3125Z" fill="#DADADA"/>
</svg>
