<svg width="49" height="43" viewBox="0 0 49 43" fill="none" xmlns="http://www.w3.org/2000/svg">
<path d="M31.1484 24.1321L49 -5H37.0376L19.1399 24.1214C19.1175 24.1472 19.1053 24.1793 19.1053 24.2125C19.1053 24.2457 19.1175 24.2778 19.1399 24.3036L30.5157 42.925C30.5617 43 30.6077 43 30.6998 43H42.5587L31.1369 24.2821C31.1275 24.2578 31.1237 24.2318 31.1256 24.206C31.1276 24.1802 31.1354 24.155 31.1484 24.1321ZM20.5777 14.7357L13.8028 3.67857C13.7803 3.6414 13.7464 3.61134 13.7054 3.59226C13.6644 3.57317 13.6182 3.56591 13.5728 3.57143H2.53052L9.3054 14.7571C9.32042 14.7834 9.32451 14.8139 9.3169 14.8429L0 29.2857H11.1343C11.172 29.2902 11.2103 29.2832 11.2434 29.2658C11.2765 29.2485 11.3028 29.2216 11.3183 29.1893L20.5777 14.8643C20.5892 14.8221 20.5892 14.7779 20.5777 14.7357Z" fill="#FEE074"/>
</svg>
